<svg width="23" height="23" viewBox="0 0 23 23" fill="none" xmlns="http://www.w3.org/2000/svg">
<g id="password-svgrepo-com 2">
<path id="Vector" d="M11.5 12.1133C11.1577 12.1146 10.8254 12.2284 10.554 12.437C10.2827 12.6456 10.0873 12.9375 9.99807 13.2679C9.9088 13.5984 9.93052 13.949 10.0599 14.2658C10.1893 14.5827 10.4191 14.8483 10.7142 15.0219V17.25H12.305V15.0219C12.5384 14.8838 12.7321 14.6877 12.8673 14.4526C13.0025 14.2175 13.0746 13.9514 13.0765 13.6802C13.0765 13.4736 13.0356 13.2691 12.9563 13.0783C12.8769 12.8876 12.7607 12.7145 12.6142 12.5688C12.4676 12.4232 12.2938 12.308 12.1026 12.2298C11.9114 12.1516 11.7066 12.112 11.5 12.1133Z" stroke="black" stroke-width="2" stroke-linecap="round" stroke-linejoin="round"/>
<path id="Vector_2" d="M17.389 8.51489H5.60625C4.46303 8.51489 3.53625 9.44166 3.53625 10.5849V18.7739C3.53625 19.9171 4.46303 20.8439 5.60625 20.8439H17.389C18.5322 20.8439 19.459 19.9171 19.459 18.7739V10.5849C19.459 9.44166 18.5322 8.51489 17.389 8.51489Z" stroke="black" stroke-width="2" stroke-linecap="round" stroke-linejoin="round"/>
<path id="Vector_3" d="M6.39688 8.51479V7.26417C6.39688 5.90946 6.93504 4.61024 7.89296 3.65232C8.85088 2.6944 10.1501 2.15625 11.5048 2.15625C12.8595 2.15625 14.1587 2.6944 15.1166 3.65232C16.0746 4.61024 16.6127 5.90946 16.6127 7.26417V8.51479" stroke="black" stroke-width="2" stroke-linecap="round" stroke-linejoin="round"/>
</g>
</svg>
