<svg width="20" height="20" viewBox="0 0 71 71" fill="none" xmlns="http://www.w3.org/2000/svg">
<path d="M34.9625 0.94043C54.3 0.94043 70.0219 16.6623 70.0219 35.9998C70.0219 55.3373 54.3 70.9623 34.9625 70.9623C15.625 70.9623 0 55.3373 0 35.9998C0 16.6623 15.625 0.94043 34.9625 0.94043ZM35.1562 41.0779L46.2906 52.3092C47.6594 53.6779 49.9031 53.6779 51.2719 52.3092C52.5406 51.0404 52.5406 48.7936 51.2719 47.4248L40.1375 36.1936L51.2719 24.9623C52.5406 23.5936 52.5406 21.3498 51.2719 20.0779C49.9031 18.7092 47.6594 18.7092 46.2906 20.0779L35.1562 31.3092L24.0219 20.0779C22.6531 18.7092 20.4094 18.7092 19.0406 20.0779C17.7719 21.3467 17.7719 23.5936 19.0406 24.9623L30.175 36.1936L19.0406 47.4248C17.7719 48.7936 17.7719 51.0373 19.0406 52.3092C20.4094 53.6779 22.6531 53.6779 24.0219 52.3092L35.1562 41.0779Z" fill="black"/>
</svg>
