<svg width="20" height="20" viewBox="0 0 20 20" fill="none" xmlns="http://www.w3.org/2000/svg">
<g id="food-scale-svgrepo-com 2">
<path id="Vector" d="M3.33323 19.1667H16.6666C16.8876 19.1667 17.0995 19.0789 17.2558 18.9226C17.4121 18.7663 17.4999 18.5543 17.4999 18.3333V15C17.4972 13.4507 17.0151 11.9403 16.1199 10.6758C15.2247 9.41134 13.9602 8.45483 12.4999 7.93749V5.83333H13.9699C14.4345 5.83495 14.8902 5.70636 15.2854 5.46215C15.6805 5.21794 15.9994 4.86787 16.2057 4.45166L17.4166 2.03916C17.4802 1.91176 17.5102 1.77018 17.5036 1.62791C17.4969 1.48565 17.454 1.34745 17.3788 1.22652C17.3035 1.10559 17.1986 1.00595 17.0739 0.937113C16.9492 0.868278 16.809 0.832546 16.6666 0.833325H3.33323C3.19117 0.833259 3.05145 0.869512 2.92734 0.938641C2.80323 1.00777 2.69885 1.10748 2.62412 1.2283C2.54939 1.34912 2.50679 1.48704 2.50037 1.62896C2.49394 1.77087 2.5239 1.91208 2.5874 2.03916L3.79407 4.45166C4.00041 4.86787 4.31926 5.21794 4.71445 5.46215C5.10963 5.70636 5.56535 5.83495 6.0299 5.83333H7.4999V7.93749C6.03956 8.45483 4.77506 9.41134 3.87987 10.6758C2.98467 11.9403 2.50264 13.4507 2.4999 15V18.3333C2.4999 18.5543 2.5877 18.7663 2.74398 18.9226C2.90026 19.0789 3.11222 19.1667 3.33323 19.1667ZM6.0299 4.16666C5.87518 4.16658 5.72354 4.12342 5.59196 4.04203C5.46038 3.96064 5.35406 3.84423 5.2849 3.70583L4.68157 2.49999H15.3182L14.7149 3.70583C14.6457 3.84423 14.5394 3.96064 14.4078 4.04203C14.2763 4.12342 14.1246 4.16658 13.9699 4.16666H6.0299ZM10.8332 5.83333V7.54916C10.2796 7.48357 9.72019 7.48357 9.16657 7.54916V5.83333H10.8332ZM4.16657 15C4.16894 13.7079 4.5999 12.453 5.39192 11.4321C6.18393 10.4112 7.29225 9.68182 8.54323 9.35833C9.49898 9.10522 10.5042 9.10522 11.4599 9.35833C12.7103 9.68244 13.8178 10.4121 14.6092 11.4329C15.4006 12.4538 15.831 13.7083 15.8332 15V17.5H4.16657V15ZM12.2557 11.0775C12.412 11.2338 12.4997 11.4457 12.4997 11.6667C12.4997 11.8876 12.412 12.0996 12.2557 12.2558L10.5891 13.9225C10.4319 14.0743 10.2214 14.1583 10.0029 14.1564C9.7844 14.1545 9.57539 14.0668 9.42088 13.9123C9.26638 13.7578 9.17874 13.5488 9.17684 13.3303C9.17494 13.1118 9.25893 12.9013 9.41073 12.7442L11.0774 11.0775C11.2337 10.9213 11.4456 10.8335 11.6666 10.8335C11.8875 10.8335 12.0995 10.9213 12.2557 11.0775Z" fill="black"/>
</g>
</svg>
