<svg width="24" height="24" viewBox="0 0 24 24" fill="none" xmlns="http://www.w3.org/2000/svg">
<g id="Icon">
<path id="Vector" d="M7.9665 22.9264L7.87518 23.418L7.96649 22.9264C6.51856 22.6575 5.27921 21.6947 4.72673 20.3085L4.72668 20.3084L4.62345 20.0496L4.62342 20.0495C3.59451 17.4712 2.50016 14.7112 2.50016 12.0526C2.50016 11.0129 2.7043 10.0234 3.07576 9.11023L3.26208 8.65221L2.80617 8.4608C2.69367 8.41357 2.59373 8.31348 2.50053 8.12075C2.40406 7.92128 2.34265 7.68238 2.27618 7.41567L2.27616 7.41557L2.26516 7.37147L2.26509 7.37122C1.8219 5.59842 1.75875 3.36812 2.55301 1.77621C2.64811 1.58615 2.8665 1.47333 3.07757 1.50598C4.95379 1.80054 6.9285 2.69022 8.41257 3.88544L8.62068 4.05305L8.87566 3.97317C9.85514 3.66633 10.9067 3.49995 12.0001 3.49995C13.1009 3.49995 14.1592 3.66856 15.1443 3.97933L15.3937 4.05802L15.6006 3.89802C17.1359 2.71067 19.0186 1.79276 20.909 1.50796C21.1268 1.47617 21.3463 1.58824 21.4414 1.76475C22.1605 3.47722 22.1917 5.54529 21.7352 7.37123L21.7352 7.3714L21.7278 7.40105C21.6615 7.66667 21.5989 7.91019 21.5009 8.1143C21.4052 8.31346 21.3038 8.41479 21.1942 8.4608L20.7383 8.6522L20.9246 9.11021C21.296 10.0234 21.5001 11.0129 21.5001 12.0526C21.5001 14.7112 20.4059 17.4712 19.3769 20.0494C19.3769 20.0495 19.3769 20.0495 19.3769 20.0495L19.2736 20.3082L19.2735 20.3085C18.7211 21.6947 17.4818 22.6575 16.0338 22.9264L16.1251 23.418L16.0338 22.9264L13.7637 23.3481C13.239 23.4456 12.7148 23.2565 12.3725 22.8745L12.0001 22.4591L11.6278 22.8745C11.2854 23.2565 10.7613 23.4455 10.2366 23.3481C10.2366 23.3481 10.2366 23.3481 10.2366 23.3481L7.9665 22.9264ZM6.83718 4.87221L7.56455 4.44713L6.84298 4.01228C5.8967 3.442 4.864 3.01053 3.81384 2.70718L3.29869 2.55837L3.1862 3.08266C2.90866 4.37631 2.91121 5.80606 3.2282 7.10027L3.47988 8.12781L4.11405 7.28105C4.83327 6.32073 5.76255 5.50022 6.83718 4.87221ZM19.8862 7.28105L20.5204 8.12784L20.7721 7.10029C21.0901 5.80207 21.0924 4.36635 20.8111 3.06862L20.6988 2.55098L20.1885 2.69281C19.1198 2.98986 18.1091 3.45338 17.1756 4.02759L16.4673 4.46321L17.1842 4.88453C18.2499 5.51093 19.1717 6.327 19.8862 7.28105ZM8.67696 5.09924L8.67695 5.09925C5.60578 6.26025 3.50016 8.95779 3.50016 12.0526C3.50016 14.5643 4.54131 17.1595 5.4312 19.3776L5.4502 19.4249L5.45021 19.425L5.45548 19.4381C5.52315 19.6068 5.58997 19.7734 5.65566 19.9382C6.0737 20.9872 7.01869 21.7332 8.14913 21.9432L10.4192 22.3649L10.8053 22.4366L10.9665 22.0785L11.5442 20.7948L11.5442 20.7948C11.625 20.6153 11.8034 20.4999 12.0001 20.4999C12.1969 20.4999 12.3754 20.6153 12.4561 20.7948L13.0337 22.0785L13.1949 22.4366L13.581 22.3649L15.8511 21.9432C16.9816 21.7332 17.9266 20.9872 18.3447 19.9382L18.3447 19.9382C18.4048 19.7873 18.466 19.6349 18.5278 19.4806L18.5505 19.4242L18.5505 19.4241L18.5692 19.3775C19.4592 17.1592 20.5001 14.5646 20.5001 12.0526C20.5001 8.9578 18.3946 6.26025 15.3233 5.09925C14.3038 4.71384 13.181 4.49995 12.0001 4.49995C10.8193 4.49995 9.69647 4.71384 8.67696 5.09924ZM13.9002 17.2999L13.9001 17.2999L12.4002 19.2998C12.3056 19.4258 12.1575 19.4999 12.0001 19.4999C11.8428 19.4999 11.6946 19.4258 11.6001 19.2998L10.1001 17.2999L9.72975 17.5777L10.1001 17.2999C9.9865 17.1484 9.9682 16.9457 10.0529 16.7763C10.1376 16.6069 10.3107 16.4999 10.5001 16.4999H13.5001C13.6895 16.4999 13.8626 16.6069 13.9473 16.7763C14.032 16.9458 14.0137 17.1484 13.9002 17.2999ZM9.12146 11.1212C9.12146 11.6735 8.67376 12.1212 8.12146 12.1212C7.56916 12.1212 7.12146 11.6735 7.12146 11.1212C7.12146 10.569 7.56916 10.1213 8.12146 10.1213C8.67376 10.1213 9.12146 10.569 9.12146 11.1212ZM17.0001 10.9999C17.0001 11.5522 16.5524 11.9999 16.0001 11.9999C15.4478 11.9999 15.0001 11.5522 15.0001 10.9999C15.0001 10.4477 15.4478 9.99994 16.0001 9.99994C16.5524 9.99994 17.0001 10.4477 17.0001 10.9999Z" fill="white" stroke="white"/>
</g>
</svg>
