<svg width="24" height="24" viewBox="0 0 24 24" fill="none" xmlns="http://www.w3.org/2000/svg">
<g clip-path="url(#clip0_70_1419)">
<path d="M9.27819 22.0525H5.40723V22.8267H9.27819V22.0525Z" fill="black"/>
<path d="M7.34287 15.4719C9.05035 15.4719 10.4396 14.0826 10.4396 12.3751C10.4396 10.6676 9.05035 9.27832 7.34287 9.27832C5.63538 9.27832 4.24609 10.6676 4.24609 12.3751C4.24609 14.0826 5.63538 15.4719 7.34287 15.4719ZM7.34287 10.0525C8.62377 10.0525 9.66545 11.0942 9.66545 12.3751C9.66545 13.656 8.62377 14.6977 7.34287 14.6977C6.06196 14.6977 5.02029 13.656 5.02029 12.3751C5.02029 11.0942 6.06196 10.0525 7.34287 10.0525Z" fill="black"/>
<path d="M17.7944 5.79435C16.5142 5.79435 15.3224 6.16752 14.3105 6.80235V2.31048C14.3105 1.24326 13.4422 0.375 12.375 0.375H2.31048C1.24326 0.375 0.375 1.24326 0.375 2.31048V22.4395C0.375 23.5067 1.24326 24.375 2.31048 24.375H12.375C13.4422 24.375 14.3105 23.5067 14.3105 22.4395V17.9476C15.3224 18.5825 16.5142 18.9556 17.7944 18.9556C21.423 18.9556 24.375 16.0036 24.375 12.375C24.375 8.74636 21.423 5.79435 17.7944 5.79435ZM2.31048 1.14919H12.375C13.0153 1.14919 13.5363 1.67023 13.5363 2.31048V2.69758H1.14919V2.31048C1.14919 1.67023 1.67023 1.14919 2.31048 1.14919ZM12.375 23.6008H2.31048C1.67023 23.6008 1.14919 23.0798 1.14919 22.4395V21.2782H13.5363V22.4395C13.5363 23.0798 13.0153 23.6008 12.375 23.6008ZM13.5363 20.504H1.14919V3.47177H13.5363V7.36674C12.8786 7.92648 12.3347 8.61358 11.9376 9.38894L10.1465 7.50377L9.55926 7.85758C9.37074 7.76545 9.17332 7.68416 8.9701 7.61526L8.80713 6.95565H5.87835L5.71539 7.61526C5.51216 7.68416 5.31474 7.76545 5.12623 7.85758L4.54597 7.50803L2.47539 9.57861L2.82494 10.1589C2.73319 10.3474 2.6519 10.5444 2.583 10.748L1.92339 10.9106V13.8394L2.58261 14.0024C2.6519 14.206 2.73319 14.403 2.82494 14.5915L2.47539 15.1718L4.54597 17.2424L5.12623 16.8928C5.31474 16.9845 5.51216 17.0658 5.71539 17.1347L5.87835 17.7944H8.80713L8.9701 17.1347C9.17332 17.0658 9.37074 16.9845 9.55926 16.8928L10.1465 17.2462L11.938 15.3622C12.3351 16.1372 12.8786 16.8239 13.5363 17.3836V20.504ZM3.60765 14.4196C3.46403 14.1576 3.34635 13.8719 3.25848 13.5704L3.19616 13.3563L2.69758 13.2332V11.5168L3.19577 11.3933L3.2581 11.1796C3.34635 10.8781 3.46364 10.5924 3.60765 10.3304L3.71448 10.1349L3.45087 9.69745L4.66481 8.48352L5.10223 8.74713L5.29771 8.6399C5.56016 8.4959 5.84584 8.37823 6.147 8.29035L6.36106 8.22803L6.48455 7.72984H8.20093L8.32403 8.22803L8.5381 8.29035C8.83926 8.37823 9.12532 8.4959 9.38739 8.6399L9.58287 8.74713L10.0133 8.48777L11.6047 10.1624C11.3562 10.8549 11.2137 11.5977 11.2137 12.375C11.2137 13.1527 11.3562 13.8955 11.6051 14.5888L10.0137 16.2626L9.58326 16.0029L9.38777 16.1097C9.12532 16.2537 8.83965 16.3718 8.53848 16.4593L8.32442 16.5216L8.20093 17.0202H6.48455L6.36145 16.522L6.14739 16.4596C5.84623 16.3718 5.56016 16.2541 5.2981 16.1101L5.10261 16.0033L4.66519 16.2669L3.45126 15.0529L3.71487 14.6155L3.60765 14.4196ZM17.7944 18.1815C14.5927 18.1815 11.9879 15.5767 11.9879 12.375C11.9879 9.17332 14.5927 6.56855 17.7944 6.56855C20.996 6.56855 23.6008 9.17332 23.6008 12.375C23.6008 15.5767 20.996 18.1815 17.7944 18.1815Z" fill="black"/>
<path d="M17.7946 9.66535C18.4348 9.66535 18.9559 9.14432 18.9559 8.50406C18.9559 7.86381 18.4348 7.34277 17.7946 7.34277C17.1543 7.34277 16.6333 7.86381 16.6333 8.50406C16.6333 9.14432 17.1543 9.66535 17.7946 9.66535ZM17.7946 8.11697C18.0083 8.11697 18.1817 8.29077 18.1817 8.50406C18.1817 8.71735 18.0083 8.89116 17.7946 8.89116C17.5809 8.89116 17.4075 8.71735 17.4075 8.50406C17.4075 8.29077 17.5809 8.11697 17.7946 8.11697Z" fill="black"/>
<path d="M18.9557 10.4395H15.8589V12.762H16.6331V15.0846H15.8589V17.4072H19.7299V15.0846H18.9557V10.4395ZM18.9557 16.633H16.6331V15.8588H17.4073V11.9878H16.6331V11.2136H18.1815V15.8588H18.9557V16.633Z" fill="black"/>
</g>
<defs>
<clipPath id="clip0_70_1419">
<rect width="24" height="24" fill="white"/>
</clipPath>
</defs>
</svg>
