<svg width="24" height="24" viewBox="0 0 24 24" fill="none" xmlns="http://www.w3.org/2000/svg">
<g clip-path="url(#clip0_70_1361)">
<path d="M7 12C7 13.3261 7.52678 14.5979 8.46447 15.5355C9.40215 16.4732 10.6739 17 12 17V7C10.6739 7 9.40215 7.52678 8.46447 8.46447C7.52678 9.40215 7 10.6739 7 12Z" fill="black"/>
<path d="M12 1.00011C9.82441 1.00011 7.69767 1.64525 5.88873 2.85395C4.07979 4.06264 2.66989 5.78061 1.83733 7.7906C1.00477 9.80058 0.786929 12.0123 1.21137 14.1461C1.6358 16.2799 2.68345 18.2399 4.22183 19.7783C5.76021 21.3167 7.72022 22.3643 9.85401 22.7887C11.9878 23.2132 14.1995 22.9954 16.2095 22.1628C18.2195 21.3302 19.9375 19.9203 21.1462 18.1114C22.3549 16.3024 23 14.1757 23 12.0001C23.0066 10.5537 22.7266 9.12035 22.1762 7.78278C21.6257 6.44521 20.8157 5.22995 19.7929 4.20718C18.7702 3.18442 17.5549 2.37441 16.2173 1.82396C14.8798 1.2735 13.4464 0.993495 12 1.00011ZM3 12.0001C3.01313 9.61721 3.96556 7.33565 5.65055 5.65066C7.33554 3.96567 9.6171 3.01324 12 3.00011V7.00011C13.3261 7.00011 14.5979 7.5269 15.5355 8.46458C16.4732 9.40226 17 10.674 17 12.0001C17 13.3262 16.4732 14.598 15.5355 15.5356C14.5979 16.4733 13.3261 17.0001 12 17.0001V21.0001C9.6171 20.987 7.33554 20.0346 5.65055 18.3496C3.96556 16.6646 3.01313 14.383 3 12.0001Z" fill="black"/>
</g>
<defs>
<clipPath id="clip0_70_1361">
<rect width="24" height="24" fill="white"/>
</clipPath>
</defs>
</svg>
