<svg width="24" height="24" viewBox="0 0 24 24" fill="none" xmlns="http://www.w3.org/2000/svg">
<path d="M22.0645 6.19355H21.6774V0H2.32258V6.19355H1.93548C0.868258 6.19355 0 7.06181 0 8.12903V19.7419C0 20.8092 0.868258 21.6774 1.93548 21.6774H6.96774V23.2258H5.41935V24H18.5806V23.2258H17.0323V21.6774H22.0645C23.1317 21.6774 24 20.8092 24 19.7419V8.12903C24 7.06181 23.1317 6.19355 22.0645 6.19355ZM3.09677 3.87097H20.9032V16.2581H3.09677V3.87097ZM20.9032 0.774194V3.09677H3.09677V0.774194H20.9032ZM1.93548 6.96774H2.32258V17.0323H21.6774V6.96774H22.0645C22.7048 6.96774 23.2258 7.48877 23.2258 8.12903V18.5806H0.774194V8.12903C0.774194 7.48877 1.29523 6.96774 1.93548 6.96774ZM16.2581 23.2258H7.74194V21.6774H16.2581V23.2258ZM22.0645 20.9032H1.93548C1.29523 20.9032 0.774194 20.3822 0.774194 19.7419V19.3548H23.2258V19.7419C23.2258 20.3822 22.7048 20.9032 22.0645 20.9032Z" fill="black"/>
<path d="M4.64529 1.54834H3.87109V2.32253H4.64529V1.54834Z" fill="black"/>
<path d="M6.19363 1.54834H5.41943V2.32253H6.19363V1.54834Z" fill="black"/>
<path d="M7.74197 1.54834H6.96777V2.32253H7.74197V1.54834Z" fill="black"/>
<path d="M12.2054 5.41943H11.7943C10.6272 5.41943 9.67725 6.36937 9.67725 7.53647V8.12911H10.4514V7.53647C10.4514 6.79595 11.0538 6.19363 11.7943 6.19363H12.2054C12.9459 6.19363 13.5482 6.79595 13.5482 7.53647C13.5482 8.00563 13.2981 8.44692 12.896 8.68808L11.6127 9.4584V11.613H12.3869V9.89659L13.2947 9.35195C13.9287 8.97182 14.3224 8.27582 14.3224 7.53647C14.3224 6.36937 13.3725 5.41943 12.2054 5.41943Z" fill="black"/>
<path d="M12.0002 12.3872C11.3599 12.3872 10.8389 12.9082 10.8389 13.5485C10.8389 14.1888 11.3599 14.7098 12.0002 14.7098C12.6404 14.7098 13.1614 14.1888 13.1614 13.5485C13.1614 12.9082 12.6404 12.3872 12.0002 12.3872ZM12.0002 13.9356C11.7869 13.9356 11.6131 13.7618 11.6131 13.5485C11.6131 13.3352 11.7869 13.1614 12.0002 13.1614C12.2134 13.1614 12.3873 13.3352 12.3873 13.5485C12.3873 13.7618 12.2134 13.9356 12.0002 13.9356Z" fill="black"/>
<path d="M8.90335 4.64526H3.87109V5.41946H8.90335V4.64526Z" fill="black"/>
<path d="M8.90335 6.1936H3.87109V6.9678H8.90335V6.1936Z" fill="black"/>
<path d="M8.90335 7.74194H3.87109V8.51614H8.90335V7.74194Z" fill="black"/>
<path d="M8.90335 9.29028H3.87109V10.0645H8.90335V9.29028Z" fill="black"/>
<path d="M8.90335 10.8386H3.87109V11.6128H8.90335V10.8386Z" fill="black"/>
<path d="M20.1289 8.51611H15.0967V9.29031H20.1289V8.51611Z" fill="black"/>
<path d="M20.1289 10.0645H15.0967V10.8386H20.1289V10.0645Z" fill="black"/>
<path d="M20.1289 11.6128H15.0967V12.387H20.1289V11.6128Z" fill="black"/>
<path d="M20.1289 13.1614H15.0967V13.9356H20.1289V13.1614Z" fill="black"/>
<path d="M20.1289 14.7097H15.0967V15.4839H20.1289V14.7097Z" fill="black"/>
</svg>
