<svg width="24" height="24" viewBox="0 0 24 24" fill="none" xmlns="http://www.w3.org/2000/svg">
<path d="M20.5801 19.3699L17.5901 11.0099C17.3801 10.4599 16.9101 10.1199 16.3701 10.1199C15.8301 10.1199 15.3701 10.4599 15.1401 11.0299L12.1601 19.3699C12.0201 19.7599 12.2201 20.1899 12.6101 20.3299C13.0001 20.4699 13.4301 20.2699 13.5701 19.8799L14.1901 18.1499H18.5401L19.1601 19.8799C19.2701 20.1899 19.5601 20.3799 19.8701 20.3799C19.9501 20.3799 20.0401 20.3699 20.1201 20.3399C20.5101 20.1999 20.7101 19.7699 20.5701 19.3799L20.5801 19.3699ZM14.7401 16.6399L16.3801 12.0499L18.0201 16.6399H14.7401ZM12.1901 7.84988C9.93011 11.4199 7.89012 13.5799 5.41012 15.0199C5.29012 15.0899 5.16012 15.1199 5.04012 15.1199C4.78012 15.1199 4.53012 14.9899 4.39012 14.7499C4.18012 14.3899 4.30012 13.9299 4.66012 13.7299C6.76011 12.5099 8.48012 10.7599 10.4101 7.85988H4.12012C3.71012 7.85988 3.37012 7.51988 3.37012 7.10988C3.37012 6.69988 3.71012 6.35988 4.12012 6.35988H7.87012V4.37988C7.87012 3.96988 8.21012 3.62988 8.62012 3.62988C9.03011 3.62988 9.37012 3.96988 9.37012 4.37988V6.35988H13.1201C13.5301 6.35988 13.8701 6.69988 13.8701 7.10988C13.8701 7.51988 13.5301 7.85988 13.1201 7.85988H12.1801L12.1901 7.84988ZM12.2301 15.1199C12.1001 15.1199 11.9701 15.0899 11.8501 15.0199C11.2001 14.6399 10.5701 14.2199 9.98011 13.7799C9.65011 13.5299 9.58012 13.0599 9.83012 12.7299C10.0801 12.3999 10.5501 12.3299 10.8801 12.5799C11.4201 12.9899 12.0101 13.3699 12.6101 13.7199C12.9701 13.9299 13.0901 14.3899 12.8801 14.7499C12.7401 14.9899 12.4901 15.1199 12.2301 15.1199Z" fill="black"/>
</svg>
