<svg width="24" height="24" viewBox="0 0 24 24" fill="none" xmlns="http://www.w3.org/2000/svg">
<path d="M4 19V17.175H6V9.975C6 8.575 6.41667 7.33333 7.25 6.25C8.08333 5.16667 9.16667 4.46667 10.5 4.15V3.5C10.5 3.08333 10.6417 2.73333 10.925 2.45C11.225 2.15 11.5833 2 12 2C12.4167 2 12.7667 2.15 13.05 2.45C13.35 2.73333 13.5 3.08333 13.5 3.5V4.15C14.8333 4.46667 15.9167 5.16667 16.75 6.25C17.5833 7.33333 18 8.575 18 9.975V17.175H20V19H4ZM12 22C11.45 22 10.975 21.8083 10.575 21.425C10.1917 21.025 10 20.55 10 20H14C14 20.55 13.8 21.025 13.4 21.425C13.0167 21.8083 12.55 22 12 22ZM7.825 17.175H16.175V9.975C16.175 8.825 15.7667 7.84167 14.95 7.025C14.1333 6.20833 13.15 5.8 12 5.8C10.85 5.8 9.86667 6.20833 9.05 7.025C8.23333 7.84167 7.825 8.825 7.825 9.975V17.175Z" fill="#221A14"/>
</svg>
