<svg width="24" height="24" viewBox="0 0 24 24" fill="none" xmlns="http://www.w3.org/2000/svg">
<path d="M19.6157 0.801656H9.56982V0.776625C9.56982 0.348375 9.22145 0 8.7932 0H7.18984C6.76159 0 6.41321 0.348375 6.41321 0.776625V0.801656H4.384C3.73473 0.801656 3.20654 1.32984 3.20654 1.97911V22.8225C3.20654 23.4718 3.73473 24 4.384 24H19.6157C20.265 24 20.7932 23.4718 20.7932 22.8225V1.97911C20.7932 1.32989 20.265 0.801656 19.6157 0.801656ZM7.16481 0.776625C7.16481 0.762797 7.17601 0.751594 7.18984 0.751594H8.7932C8.80703 0.751594 8.81823 0.762797 8.81823 0.776625V4.48364L8.19995 4.07142C8.13681 4.02933 8.06415 4.00828 7.9915 4.00828C7.91884 4.00828 7.84618 4.02933 7.78304 4.07142L7.16476 4.48364V0.776625H7.16481ZM4.8099 23.2485H4.384C4.14915 23.2485 3.95809 23.0574 3.95809 22.8225V1.97911C3.95809 1.74427 4.14915 1.5532 4.384 1.5532H4.8099V23.2485ZM20.0417 22.8225H20.0416C20.0416 23.0574 19.8505 23.2485 19.6157 23.2485H5.56145V1.55325H6.41321V5.18583C6.41321 5.32444 6.48948 5.4518 6.61168 5.51719C6.73389 5.58258 6.88215 5.57545 6.99742 5.49848L7.9915 4.83577L8.98557 5.49848C9.04843 5.54044 9.12114 5.56163 9.19407 5.56163C9.25487 5.56163 9.31581 5.54691 9.3714 5.51719C9.49356 5.4518 9.56987 5.32444 9.56987 5.18583V1.55325H19.6158C19.8506 1.55325 20.0417 1.74431 20.0417 1.97916L20.0417 22.8225Z" fill="black"/>
<path d="M17.6115 6.41333H11.9998C11.5715 6.41333 11.2232 6.76171 11.2232 7.18996V10.8225H7.59059C7.16234 10.8225 6.81396 11.1709 6.81396 11.5992V17.2108C6.81396 17.6391 7.16234 17.9875 7.59059 17.9875H17.6115C18.0397 17.9875 18.3881 17.6391 18.3881 17.2108V7.18996C18.3881 6.76171 18.0397 6.41333 17.6115 6.41333ZM17.6366 17.2108C17.6366 17.2247 17.6254 17.2359 17.6115 17.2359H7.59059C7.57676 17.2359 7.56556 17.2247 7.56556 17.2108V11.5992C7.56556 11.5853 7.57676 11.5741 7.59059 11.5741H11.5989C11.8064 11.5741 11.9747 11.4059 11.9747 11.1983V7.19C11.9747 7.17617 11.9859 7.16497 11.9997 7.16497H17.6114C17.6253 7.16497 17.6365 7.17617 17.6365 7.19V17.2108H17.6366Z" fill="black"/>
<path d="M14.8059 10.4216C14.5983 10.4216 14.4301 10.5899 14.4301 10.7974V14.0292H11.6378L11.8077 13.9159C11.9804 13.8008 12.0271 13.5675 11.9119 13.3948C11.7967 13.2221 11.5634 13.1755 11.3908 13.2906L10.1883 14.0923C10.0838 14.162 10.021 14.2793 10.021 14.4049C10.021 14.5306 10.0838 14.6479 10.1883 14.7176L11.3908 15.5192C11.4549 15.562 11.5273 15.5824 11.5989 15.5824C11.7203 15.5824 11.8395 15.5236 11.9119 15.415C12.027 15.2424 11.9804 15.0091 11.8077 14.8939L11.6378 14.7807H14.8059C15.0134 14.7807 15.1817 14.6124 15.1817 14.4049V10.7974C15.1817 10.5899 15.0134 10.4216 14.8059 10.4216Z" fill="black"/>
</svg>
