<svg width="70" height="70" viewBox="0 0 70 70" fill="none" xmlns="http://www.w3.org/2000/svg">
<path d="M41.9301 0C42.4593 1.66791e-05 42.975 0.168019 43.4027 0.479813C43.8304 0.791606 44.1481 1.2311 44.3101 1.735L47.0601 10.28C48.2151 10.845 49.3201 11.48 50.3751 12.195L59.1551 10.305C59.6727 10.1945 60.2121 10.2511 60.6955 10.4668C61.179 10.6824 61.5815 11.046 61.8451 11.505L68.7751 23.5C69.0397 23.9588 69.1518 24.4898 69.0952 25.0163C69.0385 25.5429 68.8162 26.038 68.4601 26.43L62.4351 33.08C62.5228 34.3552 62.5228 35.6348 62.4351 36.91L68.4601 43.57C68.8162 43.962 69.0385 44.4571 69.0952 44.9837C69.1518 45.5102 69.0397 46.0412 68.7751 46.5L61.8451 58.5C61.5807 58.9581 61.1779 59.3206 60.6946 59.5354C60.2112 59.7501 59.6722 59.806 59.1551 59.695L50.3751 57.805C49.3251 58.515 48.2151 59.155 47.0651 59.72L44.3101 68.265C44.1481 68.7689 43.8304 69.2084 43.4027 69.5202C42.975 69.832 42.4593 70 41.9301 70H28.0701C27.5408 70 27.0251 69.832 26.5974 69.5202C26.1697 69.2084 25.852 68.7689 25.6901 68.265L22.9451 59.725C21.7932 59.1617 20.6821 58.5185 19.6201 57.8L10.8451 59.695C10.3274 59.8055 9.78798 59.7489 9.30456 59.5332C8.82114 59.3176 8.41864 58.954 8.15505 58.495L1.22505 46.5C0.960426 46.0412 0.848338 45.5102 0.904951 44.9837C0.961565 44.4571 1.18395 43.962 1.54005 43.57L7.56505 36.91C7.47778 35.6382 7.47778 34.3618 7.56505 33.09L1.54005 26.43C1.18395 26.038 0.961565 25.5429 0.904951 25.0163C0.848338 24.4898 0.960426 23.9588 1.22505 23.5L8.15505 11.5C8.41937 11.0419 8.82218 10.6794 9.30554 10.4646C9.7889 10.2499 10.3279 10.194 10.8451 10.305L19.6201 12.2C20.6801 11.485 21.7901 10.84 22.9451 10.275L25.6951 1.735C25.8565 1.23272 26.1727 0.794393 26.5984 0.48275C27.0241 0.171107 27.5375 0.00212834 28.0651 0H41.9251H41.9301ZM40.1001 5H29.9001L27.0601 13.835L25.1451 14.77C24.2036 15.2307 23.2949 15.7552 22.4251 16.34L20.6551 17.54L11.5751 15.58L6.47505 24.42L12.7001 31.31L12.5501 33.43C12.4782 34.4754 12.4782 35.5246 12.5501 36.57L12.7001 38.69L6.46505 45.58L11.5701 54.42L20.6501 52.465L22.4201 53.66C23.2899 54.2448 24.1986 54.7693 25.1401 55.23L27.0551 56.165L29.9001 65H40.1101L42.9601 56.16L44.8701 55.23C45.8104 54.7704 46.7176 54.2458 47.5851 53.66L49.3501 52.465L58.4351 54.42L63.5351 45.58L57.3051 38.69L57.4551 36.57C57.5271 35.5229 57.5271 34.4721 57.4551 33.425L57.3051 31.305L63.5401 24.42L58.4351 15.58L49.3501 17.53L47.5851 16.34C46.7177 15.7541 45.8105 15.2295 44.8701 14.77L42.9601 13.84L40.1051 5H40.1001ZM35.0001 20C38.9783 20 42.7936 21.5804 45.6067 24.3934C48.4197 27.2064 50.0001 31.0218 50.0001 35C50.0001 38.9782 48.4197 42.7936 45.6067 45.6066C42.7936 48.4196 38.9783 50 35.0001 50C31.0218 50 27.2065 48.4196 24.3935 45.6066C21.5804 42.7936 20.0001 38.9782 20.0001 35C20.0001 31.0218 21.5804 27.2064 24.3935 24.3934C27.2065 21.5804 31.0218 20 35.0001 20ZM35.0001 25C32.3479 25 29.8043 26.0536 27.929 27.9289C26.0536 29.8043 25.0001 32.3478 25.0001 35C25.0001 37.6522 26.0536 40.1957 27.929 42.0711C29.8043 43.9464 32.3479 45 35.0001 45C37.6522 45 40.1958 43.9464 42.0711 42.0711C43.9465 40.1957 45.0001 37.6522 45.0001 35C45.0001 32.3478 43.9465 29.8043 42.0711 27.9289C40.1958 26.0536 37.6522 25 35.0001 25Z" fill="white"/>
</svg>
