<svg width="56" height="47" viewBox="0 0 56 47" fill="none" xmlns="http://www.w3.org/2000/svg">
<path d="M30.3892 23.7135C29.4059 17.8302 23.7559 13.0469 17.7892 13.0469C11.3058 13.0469 5.60583 18.2969 5.05583 24.7635C4.83916 27.2635 5.63917 29.6302 7.28917 31.4135C8.9225 33.1969 11.2225 34.1802 13.7225 34.1802H21.5225C24.3392 34.1802 26.8059 33.0802 28.4892 31.0969C30.1725 29.1135 30.8392 26.4802 30.3892 23.7135Z" fill="#88511D" stroke="#88511D"/>
<path d="M15.7215 10.6129C18.4185 10.6129 20.6048 8.42651 20.6048 5.72952C20.6048 3.03254 18.4185 0.846191 15.7215 0.846191C13.0245 0.846191 10.8381 3.03254 10.8381 5.72952C10.8381 8.42651 13.0245 10.6129 15.7215 10.6129Z" fill="#88511D" stroke="#88511D"/>
<path d="M26.822 12.5603C29.068 12.5603 30.8887 10.7396 30.8887 8.49367C30.8887 6.2477 29.068 4.427 26.822 4.427C24.576 4.427 22.7554 6.2477 22.7554 8.49367C22.7554 10.7396 24.576 12.5603 26.822 12.5603Z" fill="#88511D" stroke="#88511D"/>
<path d="M32.8381 19.065C34.6331 19.065 36.0881 17.6099 36.0881 15.8149C36.0881 14.02 34.6331 12.5649 32.8381 12.5649C31.0433 12.5649 29.5881 14.02 29.5881 15.8149C29.5881 17.6099 31.0433 19.065 32.8381 19.065Z" fill="#88511D" stroke="#88511D"/>
<path d="M5.15553 15.8155C7.40148 15.8155 9.2222 13.9948 9.2222 11.7488C9.2222 9.50285 7.40148 7.68213 5.15553 7.68213C2.90958 7.68213 1.08887 9.50285 1.08887 11.7488C1.08887 13.9948 2.90958 15.8155 5.15553 15.8155Z" fill="#88511D" stroke="#88511D"/>
</svg>
