<svg width="224" height="202" viewBox="0 0 224 202" fill="none" xmlns="http://www.w3.org/2000/svg">
<g clip-path="url(#clip0_71_1551)">
<rect width="224" height="202" rx="60" fill="#FFDCC2"/>
<path d="M172.946 130.567C168.03 101.15 139.78 77.2339 109.946 77.2339C77.5295 77.2339 49.0295 103.484 46.2795 135.817C45.1962 148.317 49.1962 160.15 57.4462 169.067C65.6129 177.984 77.1129 182.9 89.6129 182.9H128.613C142.696 182.9 155.03 177.4 163.446 167.484C171.863 157.567 175.196 144.4 172.946 130.567Z" fill="#88511D" stroke="#88511D"/>
<path d="M99.607 65.0641C113.092 65.0641 124.024 54.1323 124.024 40.6474C124.024 27.1625 113.092 16.2307 99.607 16.2307C86.1221 16.2307 75.1904 27.1625 75.1904 40.6474C75.1904 54.1323 86.1221 65.0641 99.607 65.0641Z" fill="#88511D" stroke="#88511D"/>
<path d="M155.111 74.8014C166.341 74.8014 175.444 65.6978 175.444 54.4681C175.444 43.2383 166.341 34.1348 155.111 34.1348C143.881 34.1348 134.777 43.2383 134.777 54.4681C134.777 65.6978 143.881 74.8014 155.111 74.8014Z" fill="#88511D" stroke="#88511D"/>
<path d="M185.19 107.325C194.165 107.325 201.44 100.049 201.44 91.074C201.44 82.0998 194.165 74.8245 185.19 74.8245C176.216 74.8245 168.94 82.0998 168.94 91.074C168.94 100.049 176.216 107.325 185.19 107.325Z" fill="#88511D" stroke="#88511D"/>
<path d="M46.7772 91.0774C58.0069 91.0774 67.1105 81.9736 67.1105 70.7437C67.1105 59.514 58.0069 50.4104 46.7772 50.4104C35.5474 50.4104 26.4438 59.514 26.4438 70.7437C26.4438 81.9736 35.5474 91.0774 46.7772 91.0774Z" fill="#88511D" stroke="#88511D"/>
</g>
<defs>
<clipPath id="clip0_71_1551">
<rect width="224" height="202" rx="60" fill="white"/>
</clipPath>
</defs>
</svg>
