<svg width="24" height="24" viewBox="0 0 24 24" fill="none" xmlns="http://www.w3.org/2000/svg">
<g id="Group">
<path id="Vector" d="M11.9997 0C10.8077 0 0.353271 0.104531 0.353271 3.72195V20.2786C0.353271 23.8956 10.8077 24 11.9999 24C13.1919 24 23.6468 23.8956 23.6468 20.2786V3.72195C23.6466 0.104531 13.1919 0 11.9997 0ZM11.9997 2.15974C17.3567 2.15974 20.5592 3.11319 21.3615 3.7218C20.5592 4.33027 17.3566 5.28329 11.9997 5.28329C6.64286 5.28329 3.4404 4.33013 2.63827 3.7218C3.4404 3.11319 6.64271 2.15974 11.9997 2.15974ZM11.9997 21.8403C6.29643 21.8403 3.03538 20.76 2.51286 20.1655V6.06584C5.64103 7.3899 11.1535 7.44303 11.9997 7.44303C12.8459 7.44303 18.3586 7.3899 21.4869 6.06569V20.1652C20.9644 20.7598 17.7032 21.8403 11.9997 21.8403Z" fill="white"/>
<path id="Vector_2" d="M11.9997 12.9116C10.2169 12.9116 8.7666 14.3621 8.7666 16.1449C8.7666 17.9277 10.2169 19.3782 11.9997 19.3782C13.7827 19.3782 15.2331 17.9277 15.2331 16.1449C15.2331 14.3621 13.7827 12.9116 11.9997 12.9116Z" fill="white"/>
<path id="Vector_3" d="M13.9211 9.14792C13.1697 9.14792 12.5583 9.75941 12.5583 10.511C12.5583 11.2624 13.1697 11.8739 13.9211 11.8739C14.6729 11.8739 15.2844 11.2624 15.2844 10.511C15.2844 9.75941 14.6729 9.14792 13.9211 9.14792Z" fill="white"/>
<path id="Vector_4" d="M10.0786 11.8739C10.83 11.8739 11.4414 11.2624 11.4414 10.511C11.4414 9.75941 10.83 9.14792 10.0786 9.14792C9.32683 9.14792 8.71533 9.75941 8.71533 10.511C8.71533 11.2624 9.32683 11.8739 10.0786 11.8739Z" fill="white"/>
<path id="Vector_5" d="M16.6888 11.959C16.0083 11.959 15.4548 12.5127 15.4548 13.193C15.4548 13.8733 16.0084 14.4268 16.6888 14.4268C17.3692 14.4268 17.9225 13.8733 17.9225 13.193C17.9225 12.5125 17.3691 11.959 16.6888 11.959Z" fill="white"/>
<path id="Vector_6" d="M7.31069 11.959C6.63037 11.959 6.0769 12.5127 6.0769 13.193C6.0769 13.8733 6.63037 14.4268 7.31069 14.4268C7.99115 14.4268 8.54462 13.8733 8.54462 13.193C8.54462 12.5125 7.99101 11.959 7.31069 11.959Z" fill="white"/>
</g>
</svg>
