<svg width="20" height="20" viewBox="0 0 20 20" fill="none" xmlns="http://www.w3.org/2000/svg">
<g id="ansible-svgrepo-com 2" clip-path="url(#clip0_54_1401)">
<path id="Vector" d="M8.8475 9.56063L12.7537 12.64L10.1656 6.25625L8.8475 9.56063ZM10 0C4.47563 0 0 4.47563 0 10C0 15.5244 4.47563 20 10 20C15.5244 20 20 15.5244 20 10C20 4.47563 15.5244 0 10 0ZM14.8306 14.4206C14.8206 14.8144 14.4956 15.1237 14.1012 15.1137C13.9056 15.1137 13.7563 15.0388 13.5481 14.8694L8.38875 10.7025L6.65688 15.0387H5.15938L9.53125 4.53438C9.63562 4.27063 9.88625 4.10125 10.1694 4.11125C10.4394 4.10125 10.6937 4.2675 10.7881 4.53438L14.7662 14.1112C14.8019 14.2056 14.8312 14.3069 14.8312 14.4012C14.8312 14.4075 14.8306 14.4075 14.8306 14.4206Z" fill="black"/>
</g>
<defs>
<clipPath id="clip0_54_1401">
<rect width="20" height="20" fill="white"/>
</clipPath>
</defs>
</svg>
