<svg width="100" height="100" viewBox="0 0 100 100" fill="none" xmlns="http://www.w3.org/2000/svg">
<g id="power-button-svgrepo-com 2">
<rect width="100" height="100" rx="50" fill="#DA342E"/>
<path id="Vector" d="M58.6 26.3919C59.3637 24.2949 61.7008 23.1902 63.6725 24.2364C68.4841 26.79 72.5108 30.655 75.2608 35.4196C78.6879 41.3571 79.9137 48.3121 78.7237 55.0634C77.5337 61.815 74.0033 67.9317 68.7525 72.3392C63.5016 76.7471 56.8658 79.1642 50.0104 79.1667C43.155 79.1692 36.5174 76.7567 31.2635 72.3525C26.0095 67.9488 22.4748 61.8346 21.2798 55.0842C20.0848 48.3334 21.306 41.3775 24.7288 35.4376C27.4756 30.671 31.4992 26.8032 36.3093 24.2461C38.28 23.1985 40.6179 24.3017 41.3833 26.3981C42.1487 28.4945 41.0409 30.7833 39.1286 31.934C36.0819 33.7674 33.5286 36.354 31.7314 39.4728C29.257 43.7667 28.3742 48.795 29.2381 53.6754C30.1019 58.5554 32.6572 62.975 36.4553 66.1588C40.2534 69.3425 45.0516 71.0867 50.0075 71.0846C54.9633 71.0829 59.7604 69.3354 63.5562 66.1492C67.3521 62.9629 69.9041 58.5413 70.7645 53.6604C71.625 48.7796 70.7387 43.7521 68.2612 39.4598C66.4616 36.3423 63.9066 33.7575 60.8583 31.9263C58.9454 30.7769 57.8358 28.4889 58.6 26.3919Z" fill="#0F0F0F"/>
<path id="Vector_2" d="M49.9999 20.8334C47.6987 20.8334 45.8333 22.6989 45.8333 25V50C45.8333 52.3013 47.6987 54.1667 49.9999 54.1667C52.3012 54.1667 54.1666 52.3013 54.1666 50V25C54.1666 22.6989 52.3012 20.8334 49.9999 20.8334Z" fill="#0F0F0F"/>
<path id="Vector_3" fill-rule="evenodd" clip-rule="evenodd" d="M95.8334 50C95.8334 75.3129 75.313 95.8333 50.0001 95.8333C24.687 95.8333 4.16675 75.3129 4.16675 50C4.16675 24.6869 24.687 4.16663 50.0001 4.16663C75.313 4.16663 95.8334 24.6869 95.8334 50ZM12.5285 50C12.5285 70.695 29.3051 87.4716 50.0001 87.4716C70.6951 87.4716 87.4717 70.695 87.4717 50C87.4717 29.305 70.6951 12.5284 50.0001 12.5284C29.3051 12.5284 12.5285 29.305 12.5285 50Z" fill="#0F0F0F"/>
</g>
</svg>
