<svg width="20" height="20" viewBox="0 0 20 20" fill="none" xmlns="http://www.w3.org/2000/svg">
<g id="question-circle-svgrepo-com 2">
<path id="Vector" d="M9.99984 18.3333C14.6022 18.3333 18.3332 14.6024 18.3332 10C18.3332 5.39762 14.6022 1.66666 9.99984 1.66666C5.39746 1.66666 1.6665 5.39762 1.6665 10C1.6665 14.6024 5.39746 18.3333 9.99984 18.3333Z" stroke="black"/>
<path id="Vector_2" d="M8.4375 7.39584C8.4375 6.53289 9.13708 5.83334 10 5.83334C10.8629 5.83334 11.5625 6.53289 11.5625 7.39584C11.5625 7.96871 11.2542 8.46959 10.7945 8.74159C10.3983 8.97592 10 9.33142 10 9.79167V10.8333" stroke="black" stroke-linecap="round"/>
<path id="Vector_3" d="M9.99984 14.1667C10.4601 14.1667 10.8332 13.7936 10.8332 13.3333C10.8332 12.8731 10.4601 12.5 9.99984 12.5C9.5396 12.5 9.1665 12.8731 9.1665 13.3333C9.1665 13.7936 9.5396 14.1667 9.99984 14.1667Z" fill="black"/>
</g>
</svg>
