<svg width="20" height="20" viewBox="0 0 20 20" fill="none" xmlns="http://www.w3.org/2000/svg">
<g id="schedule-svgrepo-com 2">
<path id="Vector" d="M9.99175 1.66669C5.39175 1.66669 1.66675 5.40002 1.66675 10C1.66675 14.6 5.39175 18.3334 9.99175 18.3334C14.6001 18.3334 18.3334 14.6 18.3334 10C18.3334 5.40002 14.6001 1.66669 9.99175 1.66669ZM10.0001 16.6667C6.31675 16.6667 3.33341 13.6834 3.33341 10C3.33341 6.31669 6.31675 3.33335 10.0001 3.33335C13.6834 3.33335 16.6667 6.31669 16.6667 10C16.6667 13.6834 13.6834 16.6667 10.0001 16.6667ZM10.4167 5.83335H9.16675V10.8334L13.5417 13.4584L14.1667 12.4334L10.4167 10.2084V5.83335Z" fill="black" fill-opacity="0.9"/>
</g>
</svg>
